<svg id="SvgjsSvg1039" xmlns="http://www.w3.org/2000/svg" version="1.1" xmlns:xlink="http://www.w3.org/1999/xlink" xmlns:svgjs="http://svgjs.com/svgjs" width="48" height="46" viewBox="0 0 48 46"><title>Home</title><desc>Created with Avocode.</desc><defs id="SvgjsDefs1040"><clipPath id="SvgjsClipPath1043"><path id="SvgjsPath1042" d="M905 405L905 427L920 427L920 411L930 411L930 427L945 427L945 405L949 405L939 395L939 384L931 384L931 387L925 381L901 405Z " fill="#ffffff"></path></clipPath><clipPath id="SvgjsClipPath1046"><path id="SvgjsPath1045" d="M920 400C920 397.23858 922.23858 395 925 395C927.76142 395 930 397.23858 930 400C930 402.76142 927.76142 405 925 405C922.23858 405 920 402.76142 920 400Z " fill="#ffffff"></path></clipPath></defs><path id="SvgjsPath1041" d="M905 405L905 427L920 427L920 411L930 411L930 427L945 427L945 405L949 405L939 395L939 384L931 384L931 387L925 381L901 405Z " fill-opacity="0" fill="#ffffff" stroke-dasharray="0" stroke-linejoin="miter" stroke-linecap="butt" stroke-opacity="1" stroke="#ffffff" stroke-miterlimit="50" stroke-width="4" clip-path="url(&quot;#SvgjsClipPath1043&quot;)" transform="matrix(1,0,0,1,-901,-381)"></path><path id="SvgjsPath1044" d="M920 400C920 397.23858 922.23858 395 925 395C927.76142 395 930 397.23858 930 400C930 402.76142 927.76142 405 925 405C922.23858 405 920 402.76142 920 400Z " fill-opacity="0" fill="#ffffff" stroke-dasharray="0" stroke-linejoin="miter" stroke-linecap="butt" stroke-opacity="1" stroke="#ffffff" stroke-miterlimit="50" stroke-width="4" clip-path="url(&quot;#SvgjsClipPath1046&quot;)" transform="matrix(1,0,0,1,-901,-381)"></path></svg>