<svg id="SvgjsSvg1000" xmlns="http://www.w3.org/2000/svg" version="1.1" xmlns:xlink="http://www.w3.org/1999/xlink" xmlns:svgjs="http://svgjs.com/svgjs" width="30" height="48" viewBox="0 0 30 48"><title>Phone</title><desc>Created with Avocode.</desc><defs id="SvgjsDefs1001"><clipPath id="SvgjsClipPath1009"><path id="SvgjsPath1008" d="M427 381C427 379.89543 427.89543 379 429 379L455 379C456.10457 379 457 379.89543 457 381L457 425C457 426.10457 456.10457 427 455 427L429 427C427.89543 427 427 426.10457 427 425Z " fill="#ffffff"></path></clipPath><clipPath id="SvgjsClipPath1012"><path id="SvgjsPath1011" d="M431 385C431 383.89543 431.89543 383 433 383L451 383C452.10457 383 453 383.89543 453 385L453 411C453 412.10457 452.10457 413 451 413L433 413C431.89543 413 431 412.10457 431 411Z " fill="#ffffff"></path></clipPath><clipPath id="SvgjsClipPath1016"><path id="SvgjsPath1015" d="M440 421C440 419.89543 440.89543 419 442 419C443.10457 419 444 419.89543 444 421C444 422.10457 443.10457 423 442 423C440.89543 423 440 422.10457 440 421Z " fill="#ffffff"></path></clipPath><clipPath id="SvgjsClipPath1020"><path id="SvgjsPath1019" d="M429 417L429 415L455 415L455 417Z " fill="#ffffff"></path></clipPath></defs><path id="SvgjsPath1007" d="M427 381C427 379.89543 427.89543 379 429 379L455 379C456.10457 379 457 379.89543 457 381L457 425C457 426.10457 456.10457 427 455 427L429 427C427.89543 427 427 426.10457 427 425Z " fill-opacity="0" fill="#ffffff" stroke-dasharray="0" stroke-linejoin="miter" stroke-linecap="butt" stroke-opacity="1" stroke="#ffffff" stroke-miterlimit="50" stroke-width="4" clip-path="url(&quot;#SvgjsClipPath1009&quot;)" transform="matrix(1,0,0,1,-427,-379)"></path><path id="SvgjsPath1010" d="M431 385C431 383.89543 431.89543 383 433 383L451 383C452.10457 383 453 383.89543 453 385L453 411C453 412.10457 452.10457 413 451 413L433 413C431.89543 413 431 412.10457 431 411Z " fill-opacity="0" fill="#ffffff" stroke-dasharray="0" stroke-linejoin="miter" stroke-linecap="butt" stroke-opacity="1" stroke="#ffffff" stroke-miterlimit="50" stroke-width="4" clip-path="url(&quot;#SvgjsClipPath1012&quot;)" transform="matrix(1,0,0,1,-427,-379)"></path><path id="SvgjsPath1013" d="M440 421C440 419.89543 440.89543 419 442 419C443.10457 419 444 419.89543 444 421C444 422.10457 443.10457 423 442 423C440.89543 423 440 422.10457 440 421Z " fill="#ffffff" fill-opacity="1" transform="matrix(1,0,0,1,-427,-379)"></path><path id="SvgjsPath1014" d="M440 421C440 419.89543 440.89543 419 442 419C443.10457 419 444 419.89543 444 421C444 422.10457 443.10457 423 442 423C440.89543 423 440 422.10457 440 421Z " fill-opacity="0" fill="#ffffff" stroke-dasharray="0" stroke-linejoin="miter" stroke-linecap="butt" stroke-opacity="1" stroke="#ffffff" stroke-miterlimit="50" stroke-width="4" clip-path="url(&quot;#SvgjsClipPath1016&quot;)" transform="matrix(1,0,0,1,-427,-379)"></path><path id="SvgjsPath1017" d="M429 417L429 415L455 415L455 417Z " fill="#ffffff" fill-opacity="1" transform="matrix(1,0,0,1,-427,-379)"></path><path id="SvgjsPath1018" d="M429 417L429 415L455 415L455 417Z " fill-opacity="0" fill="#ffffff" stroke-dasharray="0" stroke-linejoin="miter" stroke-linecap="butt" stroke-opacity="1" stroke="#ffffff" stroke-miterlimit="50" stroke-width="4" clip-path="url(&quot;#SvgjsClipPath1020&quot;)" transform="matrix(1,0,0,1,-427,-379)"></path></svg>