<svg id="SvgjsSvg1021" xmlns="http://www.w3.org/2000/svg" version="1.1" xmlns:xlink="http://www.w3.org/1999/xlink" xmlns:svgjs="http://svgjs.com/svgjs" width="48" height="48" viewBox="0 0 48 48"><title>Television</title><desc>Created with Avocode.</desc><defs id="SvgjsDefs1022"><clipPath id="SvgjsClipPath1025"><path id="SvgjsPath1024" d="M659 393C659 391.89543 659.89543 391 661 391L705 391C706.10457 391 707 391.89543 707 393L707 425C707 426.10457 706.10457 427 705 427L661 427C659.89543 427 659 426.10457 659 425Z " fill="#ffffff"></path></clipPath><clipPath id="SvgjsClipPath1028"><path id="SvgjsPath1027" d="M665 399C665 397.89543 665.89543 397 667 397L699 397C700.10457 397 701 397.89543 701 399L701 419C701 420.10457 700.10457 421 699 421L667 421C665.89543 421 665 420.10457 665 419Z " fill="#ffffff"></path></clipPath><clipPath id="SvgjsClipPath1033"><path id="SvgjsPath1032" d="M670 381C670 379.89543 670.89543 379 672 379C673.10457 379 674 379.89543 674 381C674 382.10457 673.10457 383 672 383C670.89543 383 670 382.10457 670 381Z " fill="#ffffff"></path></clipPath><clipPath id="SvgjsClipPath1037"><path id="SvgjsPath1036" d="M692 381C692 379.89543 692.89543 379 694 379C695.10457 379 696 379.89543 696 381C696 382.10457 695.10457 383 694 383C692.89543 383 692 382.10457 692 381Z " fill="#ffffff"></path></clipPath></defs><path id="SvgjsPath1023" d="M659 393C659 391.89543 659.89543 391 661 391L705 391C706.10457 391 707 391.89543 707 393L707 425C707 426.10457 706.10457 427 705 427L661 427C659.89543 427 659 426.10457 659 425Z " fill-opacity="0" fill="#ffffff" stroke-dasharray="0" stroke-linejoin="miter" stroke-linecap="butt" stroke-opacity="1" stroke="#ffffff" stroke-miterlimit="50" stroke-width="4" clip-path="url(&quot;#SvgjsClipPath1025&quot;)" transform="matrix(1,0,0,1,-659,-379)"></path><path id="SvgjsPath1026" d="M665 399C665 397.89543 665.89543 397 667 397L699 397C700.10457 397 701 397.89543 701 399L701 419C701 420.10457 700.10457 421 699 421L667 421C665.89543 421 665 420.10457 665 419Z " fill-opacity="0" fill="#ffffff" stroke-dasharray="0" stroke-linejoin="miter" stroke-linecap="butt" stroke-opacity="1" stroke="#ffffff" stroke-miterlimit="50" stroke-width="4" clip-path="url(&quot;#SvgjsClipPath1028&quot;)" transform="matrix(1,0,0,1,-659,-379)"></path><path id="SvgjsPath1029" d="M683 392L672 381 " fill-opacity="0" fill="#ffffff" stroke-dasharray="0" stroke-linejoin="miter" stroke-linecap="butt" stroke-opacity="1" stroke="#ffffff" stroke-miterlimit="50" stroke-width="2" transform="matrix(1,0,0,1,-659,-379)"></path><path id="SvgjsPath1030" d="M670 381C670 379.89543 670.89543 379 672 379C673.10457 379 674 379.89543 674 381C674 382.10457 673.10457 383 672 383C670.89543 383 670 382.10457 670 381Z " fill="#ffffff" fill-opacity="1" transform="matrix(1,0,0,1,-659,-379)"></path><path id="SvgjsPath1031" d="M670 381C670 379.89543 670.89543 379 672 379C673.10457 379 674 379.89543 674 381C674 382.10457 673.10457 383 672 383C670.89543 383 670 382.10457 670 381Z " fill-opacity="0" fill="#ffffff" stroke-dasharray="0" stroke-linejoin="miter" stroke-linecap="butt" stroke-opacity="1" stroke="#ffffff" stroke-miterlimit="50" stroke-width="4" clip-path="url(&quot;#SvgjsClipPath1033&quot;)" transform="matrix(1,0,0,1,-659,-379)"></path><path id="SvgjsPath1034" d="M692 381C692 379.89543 692.89543 379 694 379C695.10457 379 696 379.89543 696 381C696 382.10457 695.10457 383 694 383C692.89543 383 692 382.10457 692 381Z " fill="#ffffff" fill-opacity="1" transform="matrix(1,0,0,1,-659,-379)"></path><path id="SvgjsPath1035" d="M692 381C692 379.89543 692.89543 379 694 379C695.10457 379 696 379.89543 696 381C696 382.10457 695.10457 383 694 383C692.89543 383 692 382.10457 692 381Z " fill-opacity="0" fill="#ffffff" stroke-dasharray="0" stroke-linejoin="miter" stroke-linecap="butt" stroke-opacity="1" stroke="#ffffff" stroke-miterlimit="50" stroke-width="4" clip-path="url(&quot;#SvgjsClipPath1037&quot;)" transform="matrix(1,0,0,1,-659,-379)"></path><path id="SvgjsPath1038" d="M683 392L694 381 " fill-opacity="0" fill="#ffffff" stroke-dasharray="0" stroke-linejoin="miter" stroke-linecap="butt" stroke-opacity="1" stroke="#ffffff" stroke-miterlimit="50" stroke-width="2" transform="matrix(1,0,0,1,-659,-379)"></path></svg>